# xmcd
# Copyright (C) 1995-1998 Ti Kan
#
# Track frame offsets:
#       150
#       20185
#       35898
#       52843
#       68957
#       83026
#       100417
#       118745
#       134451
#       147944
#       160940
#
# Disc length: 2378 seconds
#
# Revision: 2
# Processed by: cddbd v1.4PL0 Copyright (c) Steve Scherf et al.
# Submitted via: CD-Transfer v1.0
#
DISCID=9f09480b
DTITLE=Horizon - Mundhart
DYEAR=2003
DGENRE=
TTITLE0=Pommfrit Mit Bohne
TTITLE1=Freiheit
TTITLE2=Fläscheposcht
TTITLE3=Verbi
TTITLE4=Zahltag
TTITLE5=I Be Elei
TTITLE6=Mit Dir Zäme Si
TTITLE7=Wäge Dir
TTITLE8=Morgemuffel
TTITLE9=Heiweh
TTITLE10=Busstation
EXTD=
EXTT0=
EXTT1=
EXTT2=
EXTT3=
EXTT4=
EXTT5=
EXTT6=
EXTT7=
EXTT8=
EXTT9=
EXTT10=
PLAYORDER=
